<svg id="visual" viewBox="0 0 900 300" width="900" height="300" xmlns="http://www.w3.org/2000/svg" xmlns:xlink="http://www.w3.org/1999/xlink" version="1.1"><rect x="0" y="0" width="900" height="300" fill="#fff"></rect><path d="M0 208L21.5 203.5C43 199 86 190 128.8 187.2C171.7 184.3 214.3 187.7 257.2 190.5C300 193.3 343 195.7 385.8 198.3C428.7 201 471.3 204 514.2 208.2C557 212.3 600 217.7 642.8 218.8C685.7 220 728.3 217 771.2 213.2C814 209.3 857 204.7 878.5 202.3L900 200L900 301L878.5 301C857 301 814 301 771.2 301C728.3 301 685.7 301 642.8 301C600 301 557 301 514.2 301C471.3 301 428.7 301 385.8 301C343 301 300 301 257.2 301C214.3 301 171.7 301 128.8 301C86 301 43 301 21.5 301L0 301Z" fill="#7aeeee"></path><path d="M0 213L21.5 212.5C43 212 86 211 128.8 214.3C171.7 217.7 214.3 225.3 257.2 225.2C300 225 343 217 385.8 213C428.7 209 471.3 209 514.2 208.7C557 208.3 600 207.7 642.8 212.5C685.7 217.3 728.3 227.7 771.2 230C814 232.3 857 226.7 878.5 223.8L900 221L900 301L878.5 301C857 301 814 301 771.2 301C728.3 301 685.7 301 642.8 301C600 301 557 301 514.2 301C471.3 301 428.7 301 385.8 301C343 301 300 301 257.2 301C214.3 301 171.7 301 128.8 301C86 301 43 301 21.5 301L0 301Z" fill="#4fb0c0"></path><path d="M0 250L21.5 248.2C43 246.3 86 242.7 128.8 238.8C171.7 235 214.3 231 257.2 232.5C300 234 343 241 385.8 241.3C428.7 241.7 471.3 235.3 514.2 234.3C557 233.3 600 237.7 642.8 239.3C685.7 241 728.3 240 771.2 239C814 238 857 237 878.5 236.5L900 236L900 301L878.5 301C857 301 814 301 771.2 301C728.3 301 685.7 301 642.8 301C600 301 557 301 514.2 301C471.3 301 428.7 301 385.8 301C343 301 300 301 257.2 301C214.3 301 171.7 301 128.8 301C86 301 43 301 21.5 301L0 301Z" fill="#30768d"></path><path d="M0 269L21.5 266.8C43 264.7 86 260.3 128.8 256.7C171.7 253 214.3 250 257.2 248C300 246 343 245 385.8 244.7C428.7 244.3 471.3 244.7 514.2 246.2C557 247.7 600 250.3 642.8 251C685.7 251.7 728.3 250.3 771.2 250C814 249.7 857 250.3 878.5 250.7L900 251L900 301L878.5 301C857 301 814 301 771.2 301C728.3 301 685.7 301 642.8 301C600 301 557 301 514.2 301C471.3 301 428.7 301 385.8 301C343 301 300 301 257.2 301C214.3 301 171.7 301 128.8 301C86 301 43 301 21.5 301L0 301Z" fill="#184057"></path><path d="M0 268L21.5 267.5C43 267 86 266 128.8 265.5C171.7 265 214.3 265 257.2 266.3C300 267.7 343 270.3 385.8 270.7C428.7 271 471.3 269 514.2 269.8C557 270.7 600 274.3 642.8 274.3C685.7 274.3 728.3 270.7 771.2 268.3C814 266 857 265 878.5 264.5L900 264L900 301L878.5 301C857 301 814 301 771.2 301C728.3 301 685.7 301 642.8 301C600 301 557 301 514.2 301C471.3 301 428.7 301 385.8 301C343 301 300 301 257.2 301C214.3 301 171.7 301 128.8 301C86 301 43 301 21.5 301L0 301Z" fill="#001122"></path></svg>