<svg id="visual" viewBox="0 0 900 300" width="900" height="300" xmlns="http://www.w3.org/2000/svg" xmlns:xlink="http://www.w3.org/1999/xlink" version="1.1"><rect x="0" y="0" width="900" height="300" fill="#001220"></rect><path d="M0 203L21.5 195.3C43 187.7 86 172.3 128.8 171C171.7 169.7 214.3 182.3 257.2 182.7C300 183 343 171 385.8 172.2C428.7 173.3 471.3 187.7 514.2 186.5C557 185.3 600 168.7 642.8 164.7C685.7 160.7 728.3 169.3 771.2 172.5C814 175.7 857 173.3 878.5 172.2L900 171L900 301L878.5 301C857 301 814 301 771.2 301C728.3 301 685.7 301 642.8 301C600 301 557 301 514.2 301C471.3 301 428.7 301 385.8 301C343 301 300 301 257.2 301C214.3 301 171.7 301 128.8 301C86 301 43 301 21.5 301L0 301Z" fill="#002c4e"></path><path d="M0 179L21.5 184.7C43 190.3 86 201.7 128.8 205.3C171.7 209 214.3 205 257.2 201C300 197 343 193 385.8 197C428.7 201 471.3 213 514.2 212.5C557 212 600 199 642.8 194.3C685.7 189.7 728.3 193.3 771.2 194.2C814 195 857 193 878.5 192L900 191L900 301L878.5 301C857 301 814 301 771.2 301C728.3 301 685.7 301 642.8 301C600 301 557 301 514.2 301C471.3 301 428.7 301 385.8 301C343 301 300 301 257.2 301C214.3 301 171.7 301 128.8 301C86 301 43 301 21.5 301L0 301Z" fill="#0c577b"></path><path d="M0 236L21.5 232.2C43 228.3 86 220.7 128.8 221.8C171.7 223 214.3 233 257.2 232.7C300 232.3 343 221.7 385.8 219.3C428.7 217 471.3 223 514.2 226.8C557 230.7 600 232.3 642.8 235.2C685.7 238 728.3 242 771.2 237.8C814 233.7 857 221.3 878.5 215.2L900 209L900 301L878.5 301C857 301 814 301 771.2 301C728.3 301 685.7 301 642.8 301C600 301 557 301 514.2 301C471.3 301 428.7 301 385.8 301C343 301 300 301 257.2 301C214.3 301 171.7 301 128.8 301C86 301 43 301 21.5 301L0 301Z" fill="#2587a6"></path><path d="M0 236L21.5 234.8C43 233.7 86 231.3 128.8 235.2C171.7 239 214.3 249 257.2 249.8C300 250.7 343 242.3 385.8 237.7C428.7 233 471.3 232 514.2 233C557 234 600 237 642.8 242C685.7 247 728.3 254 771.2 252C814 250 857 239 878.5 233.5L900 228L900 301L878.5 301C857 301 814 301 771.2 301C728.3 301 685.7 301 642.8 301C600 301 557 301 514.2 301C471.3 301 428.7 301 385.8 301C343 301 300 301 257.2 301C214.3 301 171.7 301 128.8 301C86 301 43 301 21.5 301L0 301Z" fill="#4abacd"></path><path d="M0 268L21.5 268.8C43 269.7 86 271.3 128.8 273.7C171.7 276 214.3 279 257.2 276.5C300 274 343 266 385.8 265.2C428.7 264.3 471.3 270.7 514.2 274.3C557 278 600 279 642.8 279.3C685.7 279.7 728.3 279.3 771.2 278.5C814 277.7 857 276.3 878.5 275.7L900 275L900 301L878.5 301C857 301 814 301 771.2 301C728.3 301 685.7 301 642.8 301C600 301 557 301 514.2 301C471.3 301 428.7 301 385.8 301C343 301 300 301 257.2 301C214.3 301 171.7 301 128.8 301C86 301 43 301 21.5 301L0 301Z" fill="#7aeeee"></path></svg>