<svg id="visual" viewBox="0 0 900 300" width="900" height="300" xmlns="http://www.w3.org/2000/svg" xmlns:xlink="http://www.w3.org/1999/xlink" version="1.1"><rect x="0" y="0" width="900" height="300" fill="#001220"></rect><path d="M0 95L21.5 102.7C43 110.3 86 125.7 128.8 127C171.7 128.3 214.3 115.7 257.2 115.3C300 115 343 127 385.8 125.8C428.7 124.7 471.3 110.3 514.2 111.5C557 112.7 600 129.3 642.8 133.3C685.7 137.3 728.3 128.7 771.2 125.5C814 122.3 857 124.7 878.5 125.8L900 127L900 0L878.5 0C857 0 814 0 771.2 0C728.3 0 685.7 0 642.8 0C600 0 557 0 514.2 0C471.3 0 428.7 0 385.8 0C343 0 300 0 257.2 0C214.3 0 171.7 0 128.8 0C86 0 43 0 21.5 0L0 0Z" fill="#002c4e"></path><path d="M0 119L21.5 113.3C43 107.7 86 96.3 128.8 92.7C171.7 89 214.3 93 257.2 97C300 101 343 105 385.8 101C428.7 97 471.3 85 514.2 85.5C557 86 600 99 642.8 103.7C685.7 108.3 728.3 104.7 771.2 103.8C814 103 857 105 878.5 106L900 107L900 0L878.5 0C857 0 814 0 771.2 0C728.3 0 685.7 0 642.8 0C600 0 557 0 514.2 0C471.3 0 428.7 0 385.8 0C343 0 300 0 257.2 0C214.3 0 171.7 0 128.8 0C86 0 43 0 21.5 0L0 0Z" fill="#0c577b"></path><path d="M0 62L21.5 65.8C43 69.7 86 77.3 128.8 76.2C171.7 75 214.3 65 257.2 65.3C300 65.7 343 76.3 385.8 78.7C428.7 81 471.3 75 514.2 71.2C557 67.3 600 65.7 642.8 62.8C685.7 60 728.3 56 771.2 60.2C814 64.3 857 76.7 878.5 82.8L900 89L900 0L878.5 0C857 0 814 0 771.2 0C728.3 0 685.7 0 642.8 0C600 0 557 0 514.2 0C471.3 0 428.7 0 385.8 0C343 0 300 0 257.2 0C214.3 0 171.7 0 128.8 0C86 0 43 0 21.5 0L0 0Z" fill="#2587a6"></path><path d="M0 62L21.5 63.2C43 64.3 86 66.7 128.8 62.8C171.7 59 214.3 49 257.2 48.2C300 47.3 343 55.7 385.8 60.3C428.7 65 471.3 66 514.2 65C557 64 600 61 642.8 56C685.7 51 728.3 44 771.2 46C814 48 857 59 878.5 64.5L900 70L900 0L878.5 0C857 0 814 0 771.2 0C728.3 0 685.7 0 642.8 0C600 0 557 0 514.2 0C471.3 0 428.7 0 385.8 0C343 0 300 0 257.2 0C214.3 0 171.7 0 128.8 0C86 0 43 0 21.5 0L0 0Z" fill="#4abacd"></path><path d="M0 30L21.5 29.2C43 28.3 86 26.7 128.8 24.3C171.7 22 214.3 19 257.2 21.5C300 24 343 32 385.8 32.8C428.7 33.7 471.3 27.3 514.2 23.7C557 20 600 19 642.8 18.7C685.7 18.3 728.3 18.7 771.2 19.5C814 20.3 857 21.7 878.5 22.3L900 23L900 0L878.5 0C857 0 814 0 771.2 0C728.3 0 685.7 0 642.8 0C600 0 557 0 514.2 0C471.3 0 428.7 0 385.8 0C343 0 300 0 257.2 0C214.3 0 171.7 0 128.8 0C86 0 43 0 21.5 0L0 0Z" fill="#7aeeee"></path></svg>