<svg id="visual" viewBox="0 0 900 600" width="900" height="600" xmlns="http://www.w3.org/2000/svg" xmlns:xlink="http://www.w3.org/1999/xlink" version="1.1"><rect x="0" y="0" width="900" height="600" fill="#7aeeee"></rect><path d="M0 245L25 233.2C50 221.3 100 197.7 150 192C200 186.3 250 198.7 300 208.7C350 218.7 400 226.3 450 223.5C500 220.7 550 207.3 600 198.5C650 189.7 700 185.3 750 193C800 200.7 850 220.3 875 230.2L900 240L900 0L875 0C850 0 800 0 750 0C700 0 650 0 600 0C550 0 500 0 450 0C400 0 350 0 300 0C250 0 200 0 150 0C100 0 50 0 25 0L0 0Z" fill="#00d3d3"></path><path d="M0 130L25 140.2C50 150.3 100 170.7 150 180.2C200 189.7 250 188.3 300 189C350 189.7 400 192.3 450 182.8C500 173.3 550 151.7 600 147.7C650 143.7 700 157.3 750 167.8C800 178.3 850 185.7 875 189.3L900 193L900 0L875 0C850 0 800 0 750 0C700 0 650 0 600 0C550 0 500 0 450 0C400 0 350 0 300 0C250 0 200 0 150 0C100 0 50 0 25 0L0 0Z" fill="#009daf"></path><path d="M0 145L25 146.7C50 148.3 100 151.7 150 153.8C200 156 250 157 300 153.2C350 149.3 400 140.7 450 133.8C500 127 550 122 600 126C650 130 700 143 750 142.3C800 141.7 850 127.3 875 120.2L900 113L900 0L875 0C850 0 800 0 750 0C700 0 650 0 600 0C550 0 500 0 450 0C400 0 350 0 300 0C250 0 200 0 150 0C100 0 50 0 25 0L0 0Z" fill="#006a82"></path><path d="M0 90L25 90.7C50 91.3 100 92.7 150 95.2C200 97.7 250 101.3 300 97.7C350 94 400 83 450 76.8C500 70.7 550 69.3 600 73.5C650 77.7 700 87.3 750 89.8C800 92.3 850 87.7 875 85.3L900 83L900 0L875 0C850 0 800 0 750 0C700 0 650 0 600 0C550 0 500 0 450 0C400 0 350 0 300 0C250 0 200 0 150 0C100 0 50 0 25 0L0 0Z" fill="#093b51"></path><path d="M0 48L25 46.7C50 45.3 100 42.7 150 43.5C200 44.3 250 48.7 300 47.7C350 46.7 400 40.3 450 43.2C500 46 550 58 600 59.3C650 60.7 700 51.3 750 45C800 38.7 850 35.3 875 33.7L900 32L900 0L875 0C850 0 800 0 750 0C700 0 650 0 600 0C550 0 500 0 450 0C400 0 350 0 300 0C250 0 200 0 150 0C100 0 50 0 25 0L0 0Z" fill="#001220"></path></svg>