<svg id="visual" viewBox="0 0 900 600" width="900" height="600" xmlns="http://www.w3.org/2000/svg" xmlns:xlink="http://www.w3.org/1999/xlink" version="1.1"><rect x="0" y="0" width="900" height="600" fill="#7aeeee"></rect><path d="M0 353L25 364.8C50 376.7 100 400.3 150 406C200 411.7 250 399.3 300 389.3C350 379.3 400 371.7 450 374.5C500 377.3 550 390.7 600 399.5C650 408.3 700 412.7 750 405C800 397.3 850 377.7 875 367.8L900 358L900 601L875 601C850 601 800 601 750 601C700 601 650 601 600 601C550 601 500 601 450 601C400 601 350 601 300 601C250 601 200 601 150 601C100 601 50 601 25 601L0 601Z" fill="#00d3d3"></path><path d="M0 468L25 457.8C50 447.7 100 427.3 150 417.8C200 408.3 250 409.7 300 409C350 408.3 400 405.7 450 415.2C500 424.7 550 446.3 600 450.3C650 454.3 700 440.7 750 430.2C800 419.7 850 412.3 875 408.7L900 405L900 601L875 601C850 601 800 601 750 601C700 601 650 601 600 601C550 601 500 601 450 601C400 601 350 601 300 601C250 601 200 601 150 601C100 601 50 601 25 601L0 601Z" fill="#009daf"></path><path d="M0 453L25 451.3C50 449.7 100 446.3 150 444.2C200 442 250 441 300 444.8C350 448.7 400 457.3 450 464.2C500 471 550 476 600 472C650 468 700 455 750 455.7C800 456.3 850 470.7 875 477.8L900 485L900 601L875 601C850 601 800 601 750 601C700 601 650 601 600 601C550 601 500 601 450 601C400 601 350 601 300 601C250 601 200 601 150 601C100 601 50 601 25 601L0 601Z" fill="#006a82"></path><path d="M0 508L25 507.3C50 506.7 100 505.3 150 502.8C200 500.3 250 496.7 300 500.3C350 504 400 515 450 521.2C500 527.3 550 528.7 600 524.5C650 520.3 700 510.7 750 508.2C800 505.7 850 510.3 875 512.7L900 515L900 601L875 601C850 601 800 601 750 601C700 601 650 601 600 601C550 601 500 601 450 601C400 601 350 601 300 601C250 601 200 601 150 601C100 601 50 601 25 601L0 601Z" fill="#093b51"></path><path d="M0 550L25 551.3C50 552.7 100 555.3 150 554.5C200 553.7 250 549.3 300 550.3C350 551.3 400 557.7 450 554.8C500 552 550 540 600 538.7C650 537.3 700 546.7 750 553C800 559.3 850 562.7 875 564.3L900 566L900 601L875 601C850 601 800 601 750 601C700 601 650 601 600 601C550 601 500 601 450 601C400 601 350 601 300 601C250 601 200 601 150 601C100 601 50 601 25 601L0 601Z" fill="#001220"></path></svg>