<svg id="visual" viewBox="0 0 900 100" width="900" height="100" xmlns="http://www.w3.org/2000/svg" xmlns:xlink="http://www.w3.org/1999/xlink" version="1.1"><path d="M0 73L21.5 71.5C43 70 86 67 128.8 67.5C171.7 68 214.3 72 257.2 75.7C300 79.3 343 82.7 385.8 82.7C428.7 82.7 471.3 79.3 514.2 77.2C557 75 600 74 642.8 75.3C685.7 76.7 728.3 80.3 771.2 80.3C814 80.3 857 76.7 878.5 74.8L900 73L900 101L878.5 101C857 101 814 101 771.2 101C728.3 101 685.7 101 642.8 101C600 101 557 101 514.2 101C471.3 101 428.7 101 385.8 101C343 101 300 101 257.2 101C214.3 101 171.7 101 128.8 101C86 101 43 101 21.5 101L0 101Z" fill="#0066FF" stroke-linecap="round" stroke-linejoin="miter"></path></svg>